<svg width="90" height="108" viewBox="0 0 90 108" fill="none" xmlns="http://www.w3.org/2000/svg">
<path d="M89.422 53.1974C89.1864 53.2042 88.9848 53.1801 88.817 53.1251C88.6585 53.0583 88.517 52.9088 88.3924 52.6767C88.3296 52.5123 88.2874 52.3401 88.2658 52.1601C88.2534 51.9682 88.2476 51.7862 88.2484 51.6142C88.2479 51.4317 88.24 51.2768 88.2247 51.1497C88.2222 51.1286 88.2171 51.0862 88.2094 51.0227C88.2018 50.9591 88.1948 50.9009 88.1884 50.8479C88.1481 50.6916 88.0943 50.6014 88.0269 50.5773C87.9689 50.5413 87.8742 50.5581 87.7429 50.6276C87.5332 50.7602 87.3069 50.9325 87.0638 51.1444C86.83 51.3445 86.5842 51.5782 86.3263 51.8456C86.0777 52.1011 85.8204 52.3738 85.5545 52.6636C85.3521 52.9458 85.2022 53.1734 85.1048 53.3463C85.0181 53.5179 84.9164 53.6107 84.7999 53.6247C84.7203 53.6772 84.629 53.6775 84.526 53.6254C84.4231 53.5733 84.3136 53.5113 84.1975 53.4393C84.1131 53.3635 84.0104 53.2685 83.8892 53.1541C83.7773 53.0279 83.7082 52.9449 83.6819 52.9051C83.6615 52.7357 83.6537 52.5808 83.6583 52.4406C83.6735 52.2991 83.6986 52.151 83.7337 51.9964C83.7794 51.8405 83.8332 51.6621 83.895 51.4613C83.9284 51.3821 83.9565 51.3035 83.9794 51.2255C84.0116 51.1357 84.0484 51.04 84.0899 50.9383C84.1144 50.7849 84.1522 50.6085 84.2034 50.4089C84.2652 50.2081 84.323 50.0185 84.3767 49.8401C84.4601 49.5508 84.5214 49.3017 84.5607 49.0928C84.6 48.8839 84.6269 48.6605 84.6412 48.4224C84.6281 48.4025 84.6295 48.3701 84.6456 48.3252C84.6617 48.2802 84.6903 48.2499 84.7314 48.2343L84.7631 48.2304C84.8309 48.1686 84.9679 48.1467 85.1742 48.1648C85.3899 48.1711 85.5557 48.2103 85.6718 48.2822C85.9172 48.4461 86.053 48.6822 86.0794 48.9906C86.1058 49.299 85.9953 49.7205 85.7481 50.2552C85.6944 50.4336 85.6341 50.602 85.5672 50.7605C85.5096 50.9071 85.484 51.0069 85.4904 51.0598C85.4904 51.0598 85.5289 51.0229 85.606 50.9492C85.6831 50.8755 85.7748 50.7892 85.8811 50.6905C85.9861 50.5811 86.0778 50.4949 86.1561 50.4318C86.2027 50.3724 86.3077 50.2631 86.4712 50.1038C86.6334 49.9338 86.8108 49.7567 87.0035 49.5724C87.1962 49.388 87.351 49.2458 87.4679 49.1458C87.5742 49.0471 87.7123 48.9445 87.8821 48.8381C88.0507 48.7211 88.1561 48.6601 88.1985 48.655C88.3044 48.6423 88.4359 48.664 88.5931 48.7203C88.7609 48.7753 88.9147 48.8482 89.0545 48.9388C89.2037 49.0175 89.2939 49.098 89.3253 49.1801C89.3304 49.2225 89.3321 49.2814 89.3304 49.3568C89.3275 49.4216 89.3292 49.4805 89.3356 49.5334C89.3454 49.7042 89.3649 49.9113 89.3943 50.1549C89.4329 50.3866 89.4669 50.6242 89.4962 50.8678C89.5242 51.1008 89.5285 51.3152 89.5091 51.5109C89.5091 51.5109 89.5157 51.5208 89.5288 51.5407C89.5407 51.55 89.5538 51.57 89.5682 51.6005C89.5589 51.6123 89.5562 51.6341 89.56 51.6659C89.5731 51.6858 89.5797 51.6958 89.5797 51.6958C89.6098 51.7673 89.6399 51.8389 89.67 51.9105C89.7107 51.9808 89.7579 52.0611 89.8118 52.1513C89.8643 52.2309 89.9254 52.3364 89.9949 52.4677C90.0009 52.6066 89.938 52.7539 89.8063 52.9094C89.6839 53.053 89.5558 53.149 89.422 53.1974Z" fill="#717171"/>
<path d="M79.1846 54.2521C78.9617 54.0963 78.7647 53.932 78.5935 53.7592C78.421 53.5758 78.2834 53.2808 78.1808 52.8742C78.1366 52.6861 78.126 52.4188 78.1487 52.0723C78.1715 51.7257 78.2241 51.3595 78.3066 50.9735C78.3878 50.577 78.4834 50.2109 78.5934 49.8754C78.7035 49.5398 78.8237 49.289 78.9541 49.1229C79.0621 48.9488 79.2056 48.8026 79.3848 48.6843C79.5745 48.5648 79.781 48.5399 80.0043 48.6098C80.1374 48.7334 80.2186 48.917 80.2479 49.1606C80.2865 49.3923 80.2544 49.6164 80.1515 49.8329C79.9741 50.1444 79.8321 50.5267 79.7255 50.98C79.6282 51.4215 79.5735 51.8149 79.5613 52.1601C79.5165 52.4126 79.5077 52.6071 79.5349 52.7435C79.5607 52.8693 79.6444 52.9398 79.7859 52.955C79.9935 52.9837 80.193 52.9006 80.3844 52.7057C80.5864 52.5095 80.7683 52.2351 80.93 51.8826C81.1023 51.5288 81.2424 51.1306 81.3502 50.6878C81.3959 50.5319 81.4226 50.3514 81.4301 50.1464C81.4483 49.9401 81.4728 49.7867 81.5037 49.6863C81.5311 49.4681 81.6014 49.2932 81.7145 49.1614C81.8368 49.0177 81.9703 48.9211 82.1147 48.8715C82.2591 48.8219 82.3722 48.8244 82.454 48.879C82.5544 48.9099 82.6633 48.9666 82.7807 49.0492C82.8981 49.1317 82.9608 49.2961 82.969 49.5422C83.0161 49.9341 82.9715 50.2778 82.8352 50.5736C82.6989 50.8693 82.591 51.1778 82.5115 51.4989C82.4429 51.7328 82.3206 52.0107 82.1445 52.3327C81.9683 52.6547 81.7732 52.9522 81.5589 53.2251C81.3552 53.4967 81.1579 53.687 80.9669 53.7959C80.6933 54.0222 80.4055 54.175 80.1035 54.2543C79.8002 54.3231 79.4939 54.3223 79.1846 54.2521Z" fill="#717171"/>
<path d="M72.8632 55.3352C72.789 55.3441 72.682 55.3032 72.5422 55.2126C72.413 55.1207 72.3327 55.0337 72.3013 54.9515C72.2593 54.8706 72.2447 54.7489 72.2573 54.5862C72.2793 54.4116 72.314 54.2087 72.3613 53.9774C72.404 53.6177 72.4317 53.3565 72.4443 53.1939C72.457 53.0312 72.4722 52.8897 72.4899 52.7694C72.5077 52.6491 72.5296 52.4745 72.5558 52.2457C72.6028 52.1004 72.6345 51.9623 72.651 51.8314C72.6768 51.6886 72.7026 51.5459 72.7284 51.4031C72.7648 51.259 72.8064 51.1144 72.8534 50.969C72.8944 50.6848 72.9532 50.4145 73.0298 50.1582C73.1157 49.89 73.2014 49.6648 73.2869 49.4826C73.3043 49.4483 73.3449 49.3843 73.4089 49.2907C73.4728 49.197 73.5259 49.1476 73.5683 49.1425C73.6428 49.0476 73.7561 49.0071 73.9082 49.0211C74.059 49.0244 74.1925 49.0621 74.3086 49.134C74.4522 49.2564 74.5408 49.4123 74.5744 49.6016C74.6172 49.7791 74.5737 50.0422 74.4437 50.3909C74.3562 50.7345 74.2656 51.0086 74.172 51.2132C74.0878 51.406 74.0074 51.6306 73.9308 51.8869C74.0269 51.7034 74.1488 51.5115 74.2966 51.3111C74.4444 51.1106 74.5596 50.9517 74.6421 50.8344C74.762 50.6695 74.875 50.5377 74.9813 50.439C75.0969 50.3284 75.2524 50.1915 75.4476 50.0283C75.6123 49.8796 75.7784 49.7414 75.9456 49.6139C76.1235 49.485 76.3474 49.4259 76.6172 49.4364C76.7219 49.413 76.8394 49.4526 76.97 49.5551C77.1111 49.6563 77.2249 49.7983 77.3113 49.9813C77.4071 50.1524 77.4307 50.3484 77.3821 50.5691C77.1321 50.5454 76.9163 50.5822 76.7346 50.6792C76.5516 50.7657 76.397 50.8649 76.2708 50.9768C76.1552 51.0874 76.0635 51.1736 75.9958 51.2355C75.8975 51.3118 75.7859 51.4112 75.661 51.5336C75.5348 51.6455 75.3999 51.7746 75.2563 51.9208C75.1115 52.0564 74.958 52.2091 74.7958 52.3791C74.5671 52.6215 74.3988 52.8297 74.2908 53.0039C74.1829 53.178 74.1027 53.3596 74.0502 53.5485C74.0058 53.715 73.9493 53.9152 73.8807 54.1491C73.8122 54.3829 73.7464 54.595 73.6833 54.7852C73.619 54.9649 73.5629 55.0791 73.515 55.1278C73.4748 55.2401 73.3707 55.3117 73.2025 55.3427C73.0449 55.3724 72.9318 55.3699 72.8632 55.3352Z" fill="#717171"/>
<path d="M64.3064 56.4777C64.0892 56.5469 63.9184 56.5567 63.7943 56.5071C63.6795 56.4458 63.5574 56.3691 63.4282 56.2772C63.2486 56.2129 63.081 56.1149 62.9255 55.9832C62.7687 55.8409 62.643 55.6895 62.5485 55.529C62.454 55.3685 62.4063 55.2399 62.4054 55.1433C62.3926 54.7688 62.4288 54.3562 62.5143 53.9054C62.6103 53.4534 62.7446 53.0075 62.9173 52.5677C63.1006 52.1266 63.3161 51.7301 63.5638 51.3779C63.8208 51.014 64.1098 50.7374 64.4309 50.5484C64.6325 50.4382 64.8564 50.379 65.1025 50.3709C65.3486 50.3627 65.5249 50.4436 65.6313 50.6134C65.8271 50.9014 65.8136 51.1018 65.5908 51.2146C65.559 51.2184 65.5239 51.2387 65.4853 51.2756C65.4455 51.3019 65.4282 51.3362 65.4333 51.3786C65.4782 51.3947 65.5953 51.3859 65.7846 51.3524C65.9727 51.3083 66.1595 51.2536 66.3451 51.1883C66.5399 51.1111 66.6659 51.0422 66.7231 50.9816C66.7828 50.9422 66.8285 50.9206 66.8603 50.9168C66.8921 50.9129 66.9728 50.914 67.1024 50.9199C67.2888 50.9511 67.3865 51.0038 67.3954 51.078C67.4005 51.1203 67.4247 51.1873 67.4679 51.2788C67.5099 51.3596 67.552 51.3976 67.5944 51.3925C67.6698 51.3941 67.6946 51.4663 67.6688 51.6091C67.6536 51.7506 67.549 51.9082 67.3551 52.082C67.1692 52.2333 67.0523 52.3333 67.0044 52.382C66.9659 52.4189 66.9695 52.4937 67.0153 52.6063C67.1242 52.7974 67.1482 53.0416 67.0873 53.339C67.0264 53.6364 66.9033 53.952 66.7178 54.2859C66.5324 54.6198 66.3027 54.9429 66.0287 55.2552C65.764 55.5556 65.479 55.8209 65.1737 56.0511C64.8776 56.2693 64.5886 56.4116 64.3064 56.4777ZM64.1935 55.1376C64.2359 55.1325 64.3075 55.1024 64.4083 55.0473C64.5078 54.9816 64.5874 54.9291 64.6471 54.8897C64.6844 54.8422 64.7316 54.7882 64.7888 54.7276C64.8553 54.6551 64.9091 54.611 64.9501 54.5953C64.9925 54.5902 65.0171 54.5712 65.0238 54.5381C65.0293 54.4945 65.0568 54.4106 65.1064 54.2865C65.1546 54.1517 65.2594 53.9511 65.4207 53.6846C65.6045 53.4261 65.7198 53.2242 65.7668 53.0789C65.8125 52.923 65.7987 52.7635 65.7253 52.6004C65.7097 52.5593 65.6747 52.5367 65.6205 52.5325C65.5768 52.527 65.5154 52.5075 65.4362 52.4741C65.3303 52.4868 65.2593 52.5222 65.2233 52.5803C65.1967 52.6264 65.1193 52.6089 64.9914 52.5276L64.699 52.2405L64.4614 52.543C64.3124 52.7329 64.1843 52.9631 64.0772 53.2339C63.9807 53.5033 63.9114 53.7749 63.8691 54.0486C63.8268 54.3223 63.8072 54.561 63.8102 54.7648C63.8187 54.9249 63.858 55.0276 63.9279 55.0729C63.9978 55.1182 64.0863 55.1398 64.1935 55.1376Z" fill="#717171"/>
<path d="M58.7637 57.3704C58.4248 57.4111 58.1035 57.3746 57.7997 57.2608C57.5052 57.135 57.2599 56.9712 57.0637 56.7692C56.8662 56.5566 56.7547 56.3444 56.7292 56.1326C56.7177 56.0373 56.7253 55.9665 56.752 55.9203C56.7893 55.8729 56.845 55.8447 56.9191 55.8358C56.9733 55.84 57.0401 55.8588 57.1193 55.8922C57.1985 55.9257 57.2784 55.9644 57.3589 56.0085C57.5424 56.1046 57.7366 56.1564 57.9417 56.1639C58.1467 56.1715 58.3255 56.1392 58.4779 56.0672C58.6291 55.9845 58.7077 55.8784 58.7136 55.7487C58.7085 55.7064 58.6765 55.6189 58.6175 55.4863C58.5586 55.3538 58.4897 55.2277 58.4109 55.1083C58.099 54.7483 57.8902 54.3974 57.7846 54.0556C57.6777 53.7032 57.5921 53.3482 57.5275 52.9907C57.5097 52.8424 57.5588 52.67 57.6748 52.4734C57.7895 52.2662 57.9367 52.0605 58.1162 51.8562C58.3157 51.6388 58.5376 51.4295 58.7819 51.2282C59.0369 51.0256 59.2897 50.8501 59.5405 50.7018C59.7912 50.5534 60.0053 50.4578 60.1828 50.415C60.3734 50.392 60.5759 50.3784 60.7903 50.3741C61.0139 50.3579 61.1667 50.3772 61.2485 50.4318C61.4107 50.5304 61.5713 50.7045 61.7303 50.9539C61.8892 51.2034 61.9795 51.4182 62.0012 51.5982C62.0114 51.6829 61.9765 51.7945 61.8965 51.9331C61.8258 52.0598 61.7623 52.2017 61.706 52.3589C61.6725 52.4381 61.645 52.522 61.6235 52.6106C61.6019 52.6991 61.575 52.7883 61.5429 52.8781C61.4972 53.034 61.3883 53.1116 61.2163 53.1108C61.0536 53.0981 60.8952 53.0313 60.7409 52.9102C60.5854 52.7785 60.4962 52.6173 60.4733 52.4267C60.4541 52.2678 60.4852 52.1244 60.5665 51.9965C60.6478 51.8685 60.6859 51.7833 60.6808 51.741C60.6783 51.7198 60.6658 51.7052 60.6433 51.6971C60.6208 51.6891 60.5831 51.6883 60.5302 51.6946C60.4561 51.7036 60.3381 51.75 60.1763 51.8339C60.0238 51.906 59.8639 52.0058 59.6966 52.1334C59.5294 52.2609 59.3805 52.4078 59.2501 52.5739C59.1582 52.7031 59.0835 52.841 59.0259 52.9876C58.9777 53.1224 58.9625 53.2639 58.9803 53.4121C58.9981 53.5604 59.0456 53.7319 59.1228 53.9268C59.2093 54.1098 59.2973 54.2603 59.3867 54.3785C59.4104 54.3971 59.4492 54.4515 59.503 54.5418C59.5662 54.6201 59.6372 54.719 59.716 54.8384C60.2047 55.5961 60.3402 56.1868 60.1226 56.6105C59.9156 57.033 59.4626 57.2862 58.7637 57.3704Z" fill="#717171"/>
<path d="M55.1239 57.889C54.929 57.9662 54.742 57.9296 54.5627 57.7793C54.3848 57.6395 54.2449 57.4146 54.1431 57.1046C54.0413 56.7945 54.0092 56.4385 54.0468 56.0364C54.0845 55.903 54.1122 55.7761 54.1299 55.6558C54.1464 55.5249 54.1502 55.4223 54.1412 55.3482C54.1497 55.2397 54.1736 55.0811 54.2129 54.8722C54.2509 54.6528 54.2937 54.4274 54.341 54.1961C54.3884 53.9648 54.4336 53.7606 54.4768 53.5835C54.5293 53.3945 54.5635 53.2776 54.5796 53.2327C54.622 53.2276 54.6546 53.186 54.6774 53.1081C54.7003 53.0301 54.7073 52.9541 54.6983 52.88C54.6881 52.7952 54.6925 52.698 54.7116 52.5883C54.7412 52.4773 54.7746 52.3981 54.8119 52.3506C54.8055 52.2976 54.8091 52.2381 54.8226 52.172C54.8455 52.0941 54.8544 52.0339 54.8493 51.9916C54.8442 51.9492 54.8497 51.9056 54.8657 51.8607C54.8924 51.8145 54.9032 51.7702 54.8981 51.7278C54.9557 51.5812 55.0248 51.3527 55.1057 51.0421C55.1958 50.7197 55.2874 50.3649 55.3804 49.9777C55.4841 49.5892 55.5778 49.2072 55.6616 48.8319C55.7453 48.4565 55.8096 48.1426 55.8544 47.8901C55.9085 47.6257 55.9324 47.4671 55.9261 47.4141C55.9159 47.3294 55.9381 47.2461 55.9927 47.1644C56.0473 47.0826 56.117 47.0366 56.2017 47.0264C56.2296 46.9908 56.3012 46.9607 56.4165 46.9361C56.5304 46.9009 56.6085 46.8807 56.6509 46.8756C56.6509 46.8756 56.6746 46.8943 56.7221 46.9315C56.7696 46.9688 56.8407 47.0247 56.9357 47.0992C57.0293 47.1632 57.1189 47.2383 57.2045 47.3247C57.3007 47.4098 57.3565 47.5159 57.3718 47.643C57.3883 47.7807 57.3831 47.9156 57.356 48.0478C57.3395 48.1787 57.297 48.3611 57.2285 48.595C57.1587 48.8182 57.0486 49.1538 56.8984 49.6016C56.8392 49.8236 56.7733 50.0357 56.701 50.2377C56.6273 50.4293 56.5931 50.5462 56.5982 50.5885C56.6033 50.6309 56.5897 50.697 56.5576 50.7868C56.536 50.8754 56.5117 50.9857 56.4846 51.1179C56.4524 51.2077 56.4095 51.3418 56.3557 51.5202C56.3007 51.688 56.2423 51.8723 56.1805 52.0731C56.1281 52.262 56.0837 52.4285 56.0473 52.5726C56.0096 52.706 55.9921 52.7834 55.9946 52.8045C55.9997 52.8469 55.9995 52.8899 55.994 52.9335C55.9991 52.9759 55.983 53.0208 55.9458 53.0683C55.9034 53.0734 55.8808 53.1083 55.8778 53.1731C55.8842 53.2261 55.8874 53.2526 55.8874 53.2526C55.9001 53.3585 55.8492 53.6493 55.7345 54.1251C55.6352 54.7279 55.5407 55.2819 55.451 55.7868C55.372 56.2906 55.3503 56.6907 55.386 56.9872C55.4166 57.2414 55.3978 57.4424 55.3297 57.5903C55.2721 57.7369 55.2035 57.8364 55.1239 57.889Z" fill="#717171"/>
<path d="M47.6874 58.2682C47.6348 58.1886 47.5293 58.1154 47.3708 58.0485C47.223 57.9803 47.1465 57.9251 47.1414 57.8827C47.1363 57.8404 47.1022 57.78 47.039 57.7016C46.9852 57.6114 46.9345 57.5477 46.8871 57.5104C46.8265 57.4533 46.8239 57.2978 46.8793 57.044C46.9334 56.7797 47.0235 56.4572 47.1497 56.0768C47.2758 55.6963 47.4171 55.3087 47.5737 54.9138C47.6483 54.8189 47.7196 54.6975 47.7878 54.5496C47.8559 54.4017 47.9086 54.3041 47.9459 54.2566C47.9408 54.2142 47.9522 54.1753 47.9802 54.1397C48.0068 54.0935 48.0413 54.0679 48.0837 54.0628L48.1802 53.7933C48.1963 53.7484 48.2496 53.656 48.3402 53.5162C48.4414 53.3751 48.5625 53.2208 48.7036 53.0535C48.8433 52.8755 48.9843 52.7081 49.1266 52.5513C49.2795 52.3933 49.405 52.2761 49.5033 52.1998C49.7078 52.0248 49.9272 51.9285 50.1615 51.9111C50.4064 51.8924 50.6218 51.9416 50.8078 52.0589C50.8434 52.0869 50.9199 52.1421 51.0373 52.2247C51.1652 52.306 51.305 52.3966 51.4567 52.4965C51.619 52.5952 51.7588 52.6858 51.8762 52.7683L52.5271 53.2218L52.3526 54.0486C52.2659 54.4888 52.2734 54.8639 52.3752 55.174C52.477 55.484 52.6107 55.7473 52.7765 55.9637C52.8434 56.0738 52.9231 56.1555 53.0155 56.2089C53.1184 56.2609 53.2453 56.2887 53.3961 56.292C53.4821 56.2924 53.5654 56.3146 53.6459 56.3586C53.7264 56.4027 53.7736 56.4829 53.7877 56.5994C53.8182 56.8536 53.7929 57.0446 53.7116 57.1726C53.6396 57.2887 53.552 57.3637 53.4486 57.3976C53.1042 57.4821 52.7662 57.4851 52.4344 57.4069C52.1027 57.3286 51.7805 57.0612 51.4677 56.6046C51.4177 56.5462 51.3454 56.4367 51.2509 56.2762C51.1657 56.1038 51.1146 55.9918 51.0976 55.9401C51.0616 55.9981 51.0117 56.074 50.9477 56.1676C50.8931 56.2494 50.8378 56.3259 50.7819 56.3971C50.1218 57.2501 49.5357 57.8256 49.0236 58.1235C48.5209 58.4097 48.0755 58.4579 47.6874 58.2682ZM48.4024 56.8446C48.4778 56.8463 48.5898 56.7952 48.7385 56.6914C48.8859 56.5769 49.0792 56.3979 49.3184 56.1542C49.6416 55.8038 49.9075 55.5139 50.1163 55.2847C50.325 55.0554 50.5215 54.7685 50.7057 54.4241L50.9863 53.8101C50.8511 53.5793 50.7367 53.4319 50.643 53.368C50.5494 53.304 50.4602 53.2772 50.3755 53.2874C50.2378 53.3039 50.0845 53.4137 49.9155 53.6167C49.7453 53.8091 49.5588 54.0894 49.356 54.4576C49.1625 54.8139 48.9475 55.2588 48.7108 55.7922C48.6012 56.0418 48.5227 56.2822 48.4753 56.5135C48.4267 56.7342 48.4024 56.8446 48.4024 56.8446Z" fill="#717171"/>
<path d="M36.9688 59.3486C36.9265 59.3537 36.8214 59.3288 36.6536 59.2738C36.4846 59.2082 36.3763 59.1567 36.3288 59.1195C36.2445 59.0437 36.186 58.9594 36.1534 58.8666C36.1195 58.7633 36.0846 58.5633 36.049 58.2668C36.0082 57.9279 36.0311 57.5384 36.1178 57.0982C36.2032 56.6474 36.3668 56.0422 36.6084 55.2826L37.101 53.8857C37.1451 53.8052 37.1851 53.7359 37.2211 53.6779C37.2558 53.6092 37.2964 53.5453 37.343 53.4859C37.3642 53.4834 37.3907 53.4802 37.4224 53.4764C37.4648 53.4713 37.4972 53.4727 37.5197 53.4808C37.6162 53.4799 37.7715 53.5203 37.9855 53.602C38.21 53.6824 38.3562 53.826 38.4241 54.0327C38.4406 54.1704 38.4392 54.337 38.4198 54.5328C38.3991 54.7179 38.3007 54.9715 38.1246 55.2935C38.0526 55.4096 37.9864 55.5733 37.9258 55.7848C37.8759 55.9949 37.83 56.1938 37.7882 56.3815C37.7801 56.4039 37.7547 56.4607 37.712 56.5518C37.6785 56.631 37.6457 56.7156 37.6136 56.8054C37.5801 56.8846 37.5647 56.9348 37.5672 56.956L37.5209 57.1066L38.1237 56.3572C38.5429 55.8233 38.9045 55.436 39.2086 55.1953C39.5127 54.9545 39.7778 54.8367 40.0041 54.8417C40.2409 54.8454 40.4421 54.9555 40.6078 55.1719C40.6947 55.2689 40.7617 55.379 40.8088 55.5023C40.8545 55.6149 40.8923 55.7501 40.922 55.9077C40.9517 56.0652 40.9706 56.2671 40.9788 56.5132L41.0877 57.4187C41.2826 57.3415 41.431 57.2807 41.5331 57.2362C41.6339 57.181 41.7354 57.1312 41.8374 57.0867C41.9196 57.0553 42.0018 57.024 42.084 56.9926C42.1767 56.9599 42.2913 56.93 42.4277 56.9029C42.4337 57.0418 42.3958 57.2183 42.3141 57.4322C42.2324 57.6462 42.1243 57.8633 41.9896 58.0837C41.8656 58.3027 41.7218 58.4919 41.5584 58.6513C41.4055 58.8093 41.2549 58.8973 41.1067 58.9151C40.969 58.9317 40.805 58.9085 40.6148 58.8454C40.4233 58.7718 40.2481 58.6102 40.0891 58.3607C40.0302 58.2282 39.9687 58.0744 39.9047 57.8995C39.8407 57.7245 39.7966 57.5365 39.7723 57.3352L39.6882 56.6363C39.6806 56.5727 39.6702 56.531 39.657 56.5111C39.6532 56.4793 39.646 56.4641 39.6354 56.4654C39.5931 56.4705 39.4688 56.5982 39.2625 56.8487C39.0669 57.0978 38.8673 57.3582 38.6636 57.6298C38.2376 58.1968 37.8751 58.6218 37.5761 58.9049C37.2878 59.1867 37.0853 59.3346 36.9688 59.3486Z" fill="#717171"/>
<path d="M30.4555 60.3903C30.3322 60.4374 30.1848 60.4175 30.0132 60.3308C29.8416 60.244 29.6827 60.1288 29.5365 59.9852C29.3903 59.8417 29.2936 59.7083 29.2466 59.585C29.1774 59.3677 29.1555 59.0964 29.1808 58.771C29.2155 58.4338 29.2958 58.075 29.4219 57.6945C29.5468 57.3035 29.7153 56.9179 29.9274 56.5378C30.1382 56.1472 30.3853 55.7898 30.6686 55.4656C30.9519 55.1414 31.2693 54.8776 31.6208 54.6742C31.7695 54.5703 31.8743 54.504 31.9353 54.4752C31.995 54.4357 32.0586 54.4281 32.1259 54.4522C32.192 54.4657 32.3096 54.5053 32.4786 54.5709C32.632 54.5954 32.7866 54.6305 32.9425 54.6762C33.1078 54.7101 33.2582 54.7994 33.3938 54.9443C33.4976 55.0929 33.5803 55.2441 33.6418 55.3979C33.7032 55.5516 33.762 55.7272 33.818 55.9246C33.9345 56.1792 33.9873 56.3501 33.9764 56.4373C33.9641 56.514 33.9393 56.5761 33.9021 56.6235C33.8301 56.7396 33.8153 56.7951 33.8577 56.7901C33.8577 56.7901 33.8549 56.8119 33.8494 56.8555C33.8532 56.8873 33.8384 56.9428 33.805 57.022C33.7589 57.2639 33.7274 57.4933 33.7105 57.7102C33.703 57.9153 33.7299 58.0947 33.7914 58.2484C33.9042 58.4712 34.032 58.5955 34.1747 58.6213C34.3281 58.6458 34.5072 58.5275 34.7122 58.2665C34.8185 58.1678 34.9445 58.0989 35.0902 58.0599C35.2346 58.0103 35.312 58.0278 35.3222 58.1125C35.3222 58.1125 35.34 58.1265 35.3755 58.1545C35.4099 58.1718 35.4482 58.1779 35.4906 58.1728C35.5435 58.1665 35.5711 58.2169 35.5732 58.3241C35.5741 58.4206 35.5663 58.5344 35.5498 58.6653C35.5334 58.7962 35.5037 58.9072 35.461 58.9983C35.3212 59.1763 35.2546 59.2917 35.2609 59.3447C35.2609 59.3447 35.2423 59.3684 35.205 59.4159C35.1771 59.4515 35.1252 59.5114 35.0494 59.5958C34.8728 59.7352 34.6362 59.8227 34.3397 59.8584C34.0538 59.8928 33.8244 59.8614 33.6515 59.764C33.4786 59.6666 33.3026 59.5428 33.1233 59.3924C32.9547 59.2408 32.8402 59.0934 32.78 58.9503L32.6815 58.801L32.2571 59.1582C32.1547 59.2888 32.0808 59.389 32.0355 59.4589C31.9889 59.5182 31.947 59.5716 31.9097 59.6191C31.883 59.6652 31.8504 59.7068 31.8119 59.7436C31.784 59.7792 31.7488 59.7996 31.7064 59.8047C31.6641 59.8098 31.627 59.8142 31.5952 59.8181C31.5635 59.8219 31.5476 59.8238 31.5476 59.8238C31.5527 59.8662 31.4856 59.9333 31.3462 60.0253C31.2056 60.1067 31.0485 60.1847 30.8748 60.2593C30.7011 60.3339 30.5614 60.3776 30.4555 60.3903ZM30.6285 59.0158C30.692 59.0082 30.7829 58.9596 30.901 58.8702C31.0285 58.7689 31.1646 58.6505 31.3095 58.5149C31.4543 58.3793 31.5833 58.2456 31.6963 58.1138C31.82 57.9807 31.9091 57.8733 31.9637 57.7915C32.001 57.7441 32.0404 57.6695 32.0819 57.5678C32.1339 57.4648 32.1926 57.3718 32.2578 57.2888C32.4682 56.9841 32.5957 56.7485 32.6401 56.582C32.6832 56.4049 32.6351 56.2281 32.4957 56.0515C32.4393 55.9401 32.3787 55.8829 32.3139 55.88C32.249 55.877 32.1211 55.93 31.9301 56.039C31.8119 56.1284 31.6889 56.2668 31.5611 56.454C31.4332 56.6413 31.3026 56.8504 31.1692 57.0814C31.0464 57.311 30.9349 57.5447 30.8346 57.7824C30.7342 58.0201 30.6526 58.234 30.5895 58.4242C30.537 58.6132 30.5172 58.7606 30.5299 58.8665C30.535 58.9089 30.5501 58.9447 30.5751 58.9739C30.6107 59.0019 30.6285 59.0158 30.6285 59.0158Z" fill="#717171"/>
<path d="M25.2109 61.1827C24.9779 61.2107 24.8019 61.2211 24.6829 61.214C24.5744 61.2055 24.4912 61.1833 24.4331 61.1473C24.3751 61.1113 24.2992 61.0614 24.2056 60.9974C24.153 60.9178 24.0662 60.8208 23.945 60.7065C23.8225 60.5816 23.7375 60.5005 23.6901 60.4632C23.6286 60.3095 23.5866 60.0943 23.564 59.8176C23.5521 59.5398 23.5641 59.2375 23.6 58.9109C23.6359 58.5842 23.6915 58.2875 23.7668 58.0206C23.7989 57.9307 23.8258 57.8416 23.8474 57.753C23.869 57.6645 23.8797 57.6202 23.8797 57.6202C23.8734 57.5672 23.9216 57.4325 24.0245 57.216C24.1379 56.9982 24.2607 56.7686 24.3928 56.5271C24.5355 56.2843 24.654 56.1088 24.7485 56.0008C24.8124 55.9071 24.9128 55.8037 25.0496 55.6906C25.197 55.5762 25.3263 55.4908 25.4377 55.4344C25.5491 55.378 25.7016 55.3059 25.8952 55.2182C26.0875 55.1198 26.2631 55.0611 26.4219 55.042C26.5702 55.0241 26.7328 55.0368 26.9099 55.0799C27.087 55.1231 27.2434 55.2171 27.379 55.3619C27.5926 55.5296 27.7417 55.7426 27.8266 56.001C27.9114 56.2594 27.9441 56.4865 27.9246 56.6822C27.8972 56.9004 27.8123 57.0878 27.67 57.2446C27.5265 57.3908 27.3653 57.4801 27.1865 57.5123C27.0065 57.534 26.8387 57.479 26.6832 57.3473C26.6307 57.2676 26.6012 57.2014 26.5948 57.1484C26.5872 57.0849 26.5975 56.9923 26.6259 56.8707C26.6504 56.7173 26.6556 56.5824 26.6416 56.4659C26.6276 56.3494 26.5729 56.2969 26.4776 56.3084C26.3399 56.325 26.2338 56.3807 26.1593 56.4756C26.0835 56.5599 25.9717 56.7023 25.824 56.9027C25.76 56.9964 25.6794 57.1297 25.582 57.3025C25.4846 57.4754 25.3891 57.6642 25.2956 57.8688C25.2114 58.0616 25.1383 58.2584 25.0766 58.4592C25.0021 58.8227 24.9554 59.0593 24.9364 59.169C24.9267 59.2669 24.9218 59.3158 24.9218 59.3158C24.9269 59.3582 24.9267 59.4012 24.9212 59.4448C24.9145 59.4779 24.9136 59.5156 24.9187 59.5579C24.934 59.685 25.0202 59.7767 25.1774 59.833C25.3028 59.8931 25.4026 59.9187 25.4768 59.9098C25.5602 59.889 25.712 59.8116 25.9323 59.6777C26.0915 59.5726 26.237 59.4423 26.3687 59.2867C26.511 59.1299 26.6605 58.9884 26.8172 58.8621C26.9248 58.774 27.0071 58.6996 27.0643 58.639C27.132 58.5771 27.1685 58.5674 27.1736 58.6097C27.1787 58.6521 27.1971 58.6713 27.2289 58.6675C27.2606 58.6637 27.2952 58.6381 27.3324 58.5906C27.3858 58.4982 27.4614 58.4569 27.5592 58.4666C27.6558 58.4657 27.7437 58.482 27.823 58.5155C27.9128 58.5476 27.9596 58.5796 27.9634 58.6114C27.9537 58.7092 27.9845 58.7861 28.0556 58.842C28.0607 58.8844 28.0519 58.9445 28.029 59.0225C28.0155 59.0886 27.9901 59.1453 27.9528 59.1928C27.9088 59.2733 27.8421 59.3888 27.7528 59.5392C27.674 59.6883 27.5987 59.8209 27.5267 59.937C27.4547 60.0531 27.4187 60.1112 27.4187 60.1112C27.3751 60.1057 27.334 60.1214 27.2955 60.1582C27.2675 60.1938 27.2349 60.2354 27.1977 60.2828C27.1219 60.3672 27.0494 60.435 26.9804 60.4862C26.9101 60.5269 26.8538 60.5498 26.8114 60.5549C26.7424 60.6062 26.6873 60.6397 26.6462 60.6554C26.6157 60.6698 26.603 60.6982 26.6081 60.7405C26.515 60.8592 26.3333 60.9563 26.063 61.0318C25.7915 61.0967 25.5075 61.147 25.2109 61.1827Z" fill="#717171"/>
<path d="M17.9733 62.2793C17.9042 62.3306 17.8017 62.3268 17.6657 62.2679C17.5403 62.2078 17.4104 62.1107 17.2761 61.9764C17.1867 61.8582 17.1131 61.7382 17.0555 61.6162C17.0071 61.4823 16.967 61.283 16.9352 61.0183C16.9203 60.8052 16.903 60.6622 16.8835 60.5894C16.8733 60.5046 16.825 60.5051 16.7387 60.5907C16.6616 60.6644 16.506 60.8443 16.2718 61.1303C16.0389 61.427 15.8121 61.6852 15.5915 61.9052C15.3802 62.1132 15.1997 62.2209 15.0502 62.2282C14.9761 62.2371 14.8697 62.2015 14.7312 62.1215C14.5926 62.0415 14.4568 61.9397 14.3238 61.816C14.1894 61.6818 14.0881 61.5543 14.0199 61.4336C13.9258 61.1871 13.881 60.8594 13.8855 60.4506C13.9006 60.0405 13.9509 59.6101 14.0363 59.1593C14.1204 58.698 14.2243 58.2665 14.3478 57.8648C14.4807 57.4513 14.6179 57.1179 14.7593 56.8645C14.91 56.5993 15.0495 56.4643 15.1779 56.4596C15.3605 56.4591 15.5249 56.5306 15.6711 56.6742C15.8266 56.8059 15.9522 56.9573 16.048 57.1284C16.0993 57.1974 16.1228 57.2591 16.1186 57.3133C16.125 57.3662 16.0903 57.4349 16.0145 57.5192C15.9345 57.6578 15.8403 57.8571 15.7319 58.1173C15.6329 58.3655 15.5311 58.6356 15.4265 58.9276C15.3326 59.2182 15.248 59.497 15.1726 59.7639C15.1067 60.0189 15.062 60.2284 15.0388 60.3924C15.0155 60.5563 15.0251 60.6358 15.0675 60.6307C15.2157 60.6128 15.3489 60.5592 15.4671 60.4698C15.584 60.3697 15.7269 60.2182 15.8959 60.0153C16.0915 59.7661 16.2607 59.5201 16.4033 59.2773C16.5447 59.024 16.6876 58.7382 16.832 58.42C16.9441 58.1916 17.0591 57.9414 17.1768 57.6694C17.305 57.3961 17.384 57.204 17.4136 57.093C17.5287 56.7998 17.6151 56.5799 17.6726 56.4333C17.7302 56.2867 17.81 56.1912 17.9121 56.1467C17.965 56.1403 18.0392 56.1314 18.1345 56.1199C18.2298 56.1084 18.2774 56.1027 18.2774 56.1027C18.3423 56.1056 18.4221 56.1444 18.517 56.2189C18.6069 56.2511 18.6986 56.2991 18.7922 56.363C18.8965 56.4257 18.9518 56.4835 18.9581 56.5365C18.9285 56.6475 18.8788 56.8146 18.809 57.0379C18.7485 57.2493 18.7028 57.4052 18.6719 57.5056C18.5255 57.9852 18.3837 58.4589 18.2466 58.9266C18.1188 59.3825 18.04 59.8432 18.0101 60.3088C18.0067 60.4596 18.0225 60.6349 18.0573 60.8349C18.1014 61.023 18.1497 61.1568 18.2023 61.2364C18.2417 61.2962 18.2877 61.3658 18.3403 61.4454C18.4021 61.5132 18.468 61.5697 18.5379 61.615C18.6409 61.6671 18.6452 61.7472 18.5507 61.8552C18.4669 61.962 18.3553 62.0614 18.216 62.1534C18.0859 62.2335 18.005 62.2755 17.9733 62.2793Z" fill="#717171"/>
<path d="M9.41312 63.0999C9.27544 63.1165 9.16106 63.1034 9.06997 63.0607C8.98946 63.0166 8.88523 62.954 8.75726 62.8727C8.53056 62.6851 8.33901 62.4771 8.18261 62.2489C8.03681 62.0193 7.96896 61.8126 7.97906 61.6287C8.00064 61.5402 8.00167 61.4595 7.98216 61.3866C7.97196 61.3019 7.96686 61.2596 7.96686 61.2596C7.90754 61.213 7.88783 61.1831 7.90774 61.17C7.92637 61.1463 7.94373 61.1119 7.95981 61.067C8.02335 61.0594 8.03752 60.9986 8.00232 60.8846C7.97094 60.8025 7.98105 60.6186 8.03263 60.3331C8.09354 60.0357 8.18812 59.7503 8.31639 59.477C8.36718 59.3635 8.44593 59.2143 8.55262 59.0296C8.65804 58.8343 8.77468 58.643 8.90255 58.4557C9.03974 58.2565 9.1655 58.0964 9.27984 57.9752C9.51783 57.7209 9.73974 57.5115 9.94557 57.3471C10.162 57.1814 10.3835 57.058 10.6101 56.9771C10.8367 56.8961 11.0718 56.8409 11.3154 56.8116C11.5696 56.781 11.7863 56.8409 11.9655 56.9912C12.2218 57.0678 12.4085 57.1904 12.5255 57.3589C12.653 57.5262 12.7499 57.7509 12.8161 58.0331C12.8861 58.3469 12.9015 58.7426 12.8622 59.22C12.8217 59.6869 12.626 60.2476 12.275 60.9023C12.0562 61.3154 11.8324 61.6431 11.6037 61.8855C11.375 62.1279 11.118 62.3576 10.8325 62.5746C10.628 62.7496 10.4005 62.8683 10.1502 62.9307C9.89983 62.993 9.65414 63.0494 9.41312 63.0999ZM10.8002 60.9669C11.009 60.7377 11.1464 60.4955 11.2124 60.2405C11.2889 59.9842 11.3657 59.6848 11.4427 59.3425C11.4774 59.2739 11.4912 59.1648 11.4839 59.0153C11.4872 58.8644 11.4753 58.7208 11.4482 58.5844C11.4197 58.4375 11.3725 58.3572 11.3064 58.3437C11.2022 58.281 11.1049 58.2766 11.0147 58.3304C10.9232 58.3737 10.8097 58.4571 10.6742 58.5809C10.3884 58.8839 10.1288 59.2267 9.8955 59.6093C9.67153 59.98 9.53654 60.4207 9.49054 60.9312C9.49063 61.1997 9.54132 61.3978 9.64261 61.5252C9.75322 61.6409 9.90594 61.6601 10.1008 61.5829C10.3049 61.4939 10.5381 61.2886 10.8002 60.9669Z" fill="#717171"/>
<path d="M3.10764 67.3236C2.73531 67.4436 2.37123 67.4982 2.01537 67.4873C1.6608 67.487 1.35873 67.432 1.10918 67.3223C0.849035 67.214 0.682292 67.0783 0.608949 66.9152C0.516094 66.6793 0.526199 66.4954 0.639263 66.3636C0.752327 66.2318 0.897601 66.1445 1.07509 66.1017C1.24198 66.0601 1.35573 66.0679 1.41633 66.1251C1.50742 66.1678 1.64936 66.2313 1.84214 66.3156C2.04551 66.3985 2.28168 66.397 2.55065 66.3109C2.78786 66.2286 2.99094 66.086 3.15989 65.883C3.32885 65.68 3.47536 65.469 3.59941 65.25C3.66883 65.1127 3.7844 64.8678 3.94611 64.5153C4.10781 64.1628 4.27099 63.7778 4.43564 63.3605C4.60961 62.9313 4.75033 62.5384 4.85781 62.1816C4.87938 62.0931 4.90434 61.988 4.93268 61.8664C4.96103 61.7448 5.00251 61.6431 5.05713 61.5614C5.10537 61.4266 5.14431 61.3038 5.17392 61.1928C5.21285 61.0699 5.23507 60.9867 5.24056 60.943C5.24478 60.8888 5.27969 60.7772 5.34529 60.6081C5.4109 60.4391 5.47121 60.2706 5.52622 60.1029C5.56006 59.9376 5.61145 59.6951 5.68039 59.3752C5.74933 59.0554 5.82528 58.7938 5.90825 58.5904C6.00602 58.3315 6.08304 58.1235 6.13933 57.9663C6.20494 57.7973 6.28349 57.6911 6.37497 57.6479C6.46137 57.5623 6.54692 57.5144 6.63164 57.5042C6.71637 57.494 6.8208 57.5136 6.94494 57.5632C7.08731 57.675 7.20321 57.7899 7.29264 57.9081C7.39138 58.0144 7.441 58.1588 7.44148 58.3414C7.45128 58.5121 7.3946 58.7553 7.27143 59.071C7.2173 59.3353 7.15002 59.5798 7.06961 59.8043C6.99851 60.017 6.94031 60.1583 6.89501 60.2282C6.85735 60.3617 6.81101 60.5123 6.756 60.6801C6.7103 60.836 6.66862 60.9807 6.63096 61.1141C6.49132 61.5607 6.36859 61.9246 6.26278 62.2059C6.15697 62.4873 6.06449 62.7455 5.98535 62.9806C5.90621 63.2158 5.82624 63.4886 5.74543 63.7992C5.54901 64.2203 5.35534 64.6196 5.16441 64.9972C4.98535 65.384 4.78721 65.7463 4.57001 66.084C4.47558 66.192 4.33667 66.3323 4.1533 66.5048C3.98179 66.6866 3.79778 66.8538 3.60127 67.0063C3.41663 67.1682 3.25208 67.274 3.10764 67.3236ZM4.66127 63.4945C4.49986 63.4925 4.31238 63.4076 4.09882 63.2399C3.89584 63.0709 3.71807 62.8882 3.56549 62.6917C3.42351 62.4939 3.35801 62.3514 3.369 62.2641C3.36263 62.2112 3.35753 62.1688 3.3537 62.137C3.34988 62.1052 3.34797 62.0894 3.34797 62.0894C3.28443 62.097 3.22064 62.0134 3.15662 61.8384C3.1019 61.6516 3.04675 61.4165 2.99116 61.1331C2.94616 60.8485 2.90518 60.5526 2.86822 60.2455C2.84185 59.9371 2.82396 59.6545 2.81456 59.3978C2.83525 59.2127 2.83285 59.0142 2.80736 58.8024C2.7806 58.58 2.76487 58.4046 2.76016 58.2763C2.72918 58.1081 2.74438 57.9666 2.80577 57.8518C2.87775 57.7357 2.93301 57.6592 2.97154 57.6223C3.34299 57.4057 3.63976 57.4613 3.86185 57.7892C4.08394 58.117 4.2144 58.6653 4.25321 59.4342C4.28301 59.8603 4.32148 60.2693 4.36864 60.6612C4.41452 61.0424 4.49109 61.3663 4.59836 61.6327C4.70563 61.8991 4.85629 62.0797 5.05034 62.1746C5.12957 62.208 5.16688 62.2948 5.16227 62.4351C5.15766 62.5753 5.12785 62.7293 5.07283 62.8971C5.01654 63.0542 4.94775 63.1968 4.86646 63.3248C4.79448 63.4409 4.72608 63.4975 4.66127 63.4945Z" fill="#717171"/>
<path d="M10.5317 0.893671C11.0839 0.904331 11.5231 1.36046 11.5126 1.91265C11.2765 14.362 12.4277 22.7311 14.8896 26.9347C17.3309 31.1032 23.4118 35.1439 33.1337 38.9629C33.6478 39.1648 33.9008 39.7452 33.6989 40.2593C33.497 40.7733 32.9166 41.0264 32.4025 40.8245C22.2998 36.8559 15.8864 32.5942 13.1638 27.9454C10.4617 23.3318 9.27028 14.67 9.51294 1.87475C9.52342 1.32256 9.97956 0.883391 10.5317 0.893671ZM53.9391 68.0187C54.4795 67.9047 55.01 68.2503 55.124 68.7906C56.5083 75.3523 54.3694 80.773 48.7878 84.8834C47.9582 85.4944 47.0999 85.9911 46.2094 86.3827C43.3534 87.6386 40.9948 87.757 36.4247 87.3497C31.4983 86.9107 29.9093 87.1581 28.3815 89.1623C25.6023 92.8082 23.624 98.8022 22.4908 107.132C22.4163 107.679 21.9124 108.062 21.3651 107.988C20.8179 107.914 20.4346 107.41 20.5091 106.862C21.6847 98.2207 23.7639 91.9208 26.7909 87.9499C28.8964 85.1878 31.0077 84.8591 36.6023 85.3577C40.8535 85.7365 42.9498 85.6312 45.4044 84.5519C46.1601 84.2196 46.8907 83.7967 47.6019 83.2729C52.5594 79.6221 54.3876 74.9888 53.1671 69.2036C53.053 68.6632 53.3987 68.1327 53.9391 68.0187Z" fill="#717171"/>
</svg>
